<svg width="120" height="120" viewBox="0 0 120 120" fill="none" xmlns="http://www.w3.org/2000/svg">
  <rect x="1" y="1" width="118" height="118" rx="28" fill="#F6EEE2" />
  <rect x="1" y="1" width="118" height="118" rx="28" stroke="#D7C7B2" stroke-width="2" />
  <path d="M39 84V36H58.5C68.9 36 75.5 41.8 75.5 50.8C75.5 60 68.9 65.8 58.5 65.8H47.6V84H39ZM47.6 58.3H57.4C63.8 58.3 67 55.7 67 50.8C67 45.9 63.8 43.3 57.4 43.3H47.6V58.3Z" fill="#182D3C" />
  <path d="M78.6 80.4C73.5 84.1 66.8 85.8 60.3 85.8C52.7 85.8 46.2 83.6 41.2 79.5" stroke="#182D3C" stroke-width="4.4" stroke-linecap="round" />
  <path d="M76.8 39.4C72.8 35.8 67 33.8 60.8 33.8C53.7 33.8 47.6 36.2 43.2 40.2" stroke="#182D3C" stroke-width="4.4" stroke-linecap="round" />
  <circle cx="80.5" cy="58.5" r="5.5" fill="#182D3C" />
</svg>
